<svg xmlns="http://www.w3.org/2000/svg" width="26" height="26" viewBox="0 0 26 26" fill="none">
  <path d="M10.5265 10.5268C10.1826 10.8473 9.9068 11.2337 9.7155 11.663C9.52421 12.0923 9.42134 12.5558 9.41305 13.0257C9.40476 13.4957 9.49121 13.9625 9.66724 14.3983C9.84327 14.8341 10.1053 15.23 10.4376 15.5623C10.77 15.8947 11.1659 16.1567 11.6017 16.3327C12.0375 16.5088 12.5043 16.5952 12.9743 16.5869C13.4442 16.5786 13.9077 16.4758 14.337 16.2845C14.7663 16.0932 15.1527 15.8174 15.4731 15.4735M11.5181 4.92683C12.0097 4.86559 12.5045 4.83442 12.9998 4.8335C21.1665 4.8335 24.6665 13.0002 24.6665 13.0002C24.1449 14.1168 23.4907 15.1666 22.7181 16.1268" stroke="#999999" stroke-width="2.33333" stroke-linecap="round" stroke-linejoin="round"/>
  <path d="M6.71152 6.71183C4.39132 8.29222 2.53471 10.463 1.33319 13.0002C1.33319 13.0002 4.83319 21.1668 12.9999 21.1668C15.2351 21.1728 17.4224 20.5195 19.2882 19.2885M1.33319 1.3335L24.6665 24.6668" stroke="#999999" stroke-width="2.33333" stroke-linecap="round" stroke-linejoin="round"/>
</svg>