<svg width="28" height="28" viewBox="0 0 28 28" fill="none" xmlns="http://www.w3.org/2000/svg">
<g id="Icon/calendar">
<path id="Vector" d="M4.66699 10.5H23.3337M4.66699 10.5V20.7667C4.66699 22.0733 4.66699 22.7267 4.92133 23.226C5.14503 23.665 5.50197 24.022 5.94099 24.2457C6.43916 24.5 7.09249 24.5 8.39683 24.5H19.6038C20.9082 24.5 21.5603 24.5 22.0585 24.2457C22.4983 24.0217 22.8553 23.6647 23.0793 23.226C23.3337 22.7267 23.3337 22.0757 23.3337 20.7713V10.5M4.66699 10.5V9.56667C4.66699 8.26 4.66699 7.60667 4.92133 7.10733C5.14533 6.6675 5.50116 6.31167 5.94099 6.08767C6.44033 5.83333 7.09366 5.83333 8.40033 5.83333H9.33366M23.3337 10.5V9.56317C23.3337 8.25883 23.3337 7.6055 23.0793 7.10733C22.8553 6.66818 22.4979 6.31124 22.0585 6.08767C21.5603 5.83333 20.907 5.83333 19.6003 5.83333H18.667M9.33366 5.83333H18.667M9.33366 5.83333V3.5M18.667 5.83333V3.5" stroke="#3172EA" stroke-width="2.33333" stroke-linecap="round" stroke-linejoin="round"/>
</g>
</svg>
