<svg width="42" height="42" viewBox="0 0 42 42" fill="none" xmlns="http://www.w3.org/2000/svg">
<g id="Component 1/solar:share-bold">
<path id="Vector" fill-rule="evenodd" clip-rule="evenodd" d="M24.1553 9.33277C24.1553 6.11277 26.7803 3.50002 30.0143 3.50002C30.7821 3.49818 31.5427 3.64758 32.2528 3.93971C32.9628 4.23184 33.6084 4.66096 34.1526 5.20259C34.6969 5.74421 35.1291 6.38772 35.4246 7.09638C35.7201 7.80503 35.8732 8.56496 35.875 9.33277C35.875 12.5545 33.25 15.1673 30.0143 15.1673C29.2383 15.1682 28.4699 15.0149 27.7536 14.7163C27.0374 14.4177 26.3877 13.9797 25.8423 13.4278L17.731 18.9508C17.9569 20.076 17.8461 21.2429 17.4125 22.3055L26.306 28.1505C27.3535 27.2962 28.6643 26.8306 30.016 26.8328C30.7838 26.8312 31.5444 26.9808 32.2544 27.2731C32.9644 27.5655 33.6098 27.9948 34.1539 28.5366C34.6979 29.0784 35.1299 29.722 35.4253 30.4307C35.7206 31.1395 35.8734 31.8995 35.875 32.6673C35.875 35.8873 33.25 38.5 30.0143 38.5C28.4639 38.5033 26.9757 37.8906 25.877 36.7968C24.7783 35.703 24.159 34.2176 24.1553 32.6673C24.1539 31.8494 24.3263 31.0405 24.661 30.2943L15.8375 24.5C14.769 25.4291 13.4 25.9395 11.984 25.9368C11.2161 25.9386 10.4554 25.7891 9.74534 25.4969C9.03526 25.2046 8.38973 24.7753 7.84562 24.2335C7.30152 23.6916 6.86951 23.0479 6.57427 22.3391C6.27904 21.6302 6.12638 20.8701 6.125 20.1023C6.12661 19.3345 6.27944 18.5747 6.57478 17.866C6.87011 17.1574 7.30216 16.5138 7.84624 15.9722C8.39032 15.4305 9.03578 15.0014 9.74574 14.7092C10.4557 14.4171 11.2163 14.2677 11.984 14.2695C13.846 14.2695 15.5015 15.1323 16.5743 16.4763L24.437 11.123C24.2499 10.5447 24.1549 9.94059 24.1553 9.33277Z" fill="#303030"/>
</g>
</svg>
