<svg width="705" height="209" viewBox="0 0 705 209" fill="none" xmlns="http://www.w3.org/2000/svg">
<path d="M-6.10352e-05 211.161L1.46844 66.9908L6.74432 66.0117V59.5937L90.0521 40.8834L90.306 40.9197L210.599 58.8866V68.5318C216.492 69.7103 228.82 72.2485 228.82 72.2485L229.926 72.5204V75.8745H227.152V74.7504C225.176 74.3335 207.408 70.6712 207.408 70.6712C207.408 70.7437 134.997 78.6665 124.935 79.7906V223.998C131.208 223.689 154.958 222.674 158.874 222.475L159.182 180.141V179.252L170.84 178.854V147.017L171.329 147.053L192.505 147.67V178.092L201.498 177.748V167.885L202.114 167.849V93.5151L200.174 93.7689L192.977 88.4749L193.648 87.5322L193.503 86.3175L203.873 85.0483V79.6637L243.415 74.2972L243.379 63.4916C241.711 63.256 236.87 62.4038 236.87 62.4038L236.906 62.2769C236.417 62.3494 236.126 62.4038 236.126 62.4038L235.583 62.4764L235.419 55.6957L243.27 54.481L243.125 36.5322L237.124 35.39L236.652 35.4806V28.1198C236.652 28.1198 241.294 27.1226 241.312 27.1226C241.312 27.0139 242.182 25.4184 243.306 23.3335H242.998L242.925 3.87984L252.027 0.562033V0L253.169 0.271952L266.132 3.53537V13.5613H265.534L272.278 15.5556C272.278 15.5556 272.042 21.3029 272.006 21.9918C272.459 22.1006 273.239 22.2638 273.239 22.2638L266.857 24.3669L266.803 24.6207C266.803 24.6207 266.621 24.5844 266.349 24.5119L266.132 24.6026V38.4721L270.592 41.9531L270.411 42.1525C270.991 42.3157 271.426 42.4063 271.426 42.4063L271.77 42.497V50.9094C271.77 50.9094 271.571 50.855 271.317 50.8187L266.132 51.5983V71.1425L605.491 24.947C605.872 24.947 691.446 48.6068 691.446 48.6068L692.135 48.77V54.7348L704.137 57.8169L703.72 59.3761L704.047 60.5183L683.07 66.2837V72.5748C687.204 73.3907 689.688 73.8983 689.688 73.8983L690.431 74.0252V240.17L600.143 248.781C600.143 248.781 557.845 246.352 505.939 243.36V243.524H505.032V243.306C426.058 238.774 325.29 232.936 316.37 232.446V232.736L256.052 239.39C255.725 239.39 172.907 230.18 172.907 230.18L172.943 228.367C172.943 228.367 202.06 229.854 221.477 228.222L170.858 225.593L158.874 224.85V224.451L148.54 224.723L123.321 225.829C123.103 225.829 117.991 224.868 117.991 224.868L117.265 224.723L117.048 219.846H102.091L89.3633 221.695C89.0913 221.695 8.04968 216.165 8.04968 216.165L6.76239 216.075V211.451L-6.10352e-05 211.143V211.161ZM13.4162 209.657L13.5793 188.952H14.2683L14.087 209.693C14.8666 209.693 15.6644 209.747 16.4984 209.802L16.7339 188.68L12.4191 188.734L12.2015 209.602C12.6003 209.602 12.9992 209.638 13.4162 209.638V209.657ZM24.9288 210.146L25.1101 188.571H25.799L25.6359 210.201C26.216 210.201 26.7599 210.273 27.3401 210.273L27.5577 188.481L24.1311 188.553L23.9135 210.146C24.258 210.146 24.6025 210.146 24.9288 210.146ZM36.097 210.672L36.2601 188.571H36.9491L36.7678 210.69C37.5111 210.69 38.2545 210.726 39.0159 210.799L39.2516 188.245L34.9366 188.317L34.7009 210.581C35.1542 210.581 35.6255 210.636 36.0607 210.672H36.097ZM122.269 78.1589L119.804 79.428L119.659 81.5311V85.7736V223.091C120.402 223.236 121.435 223.435 122.287 223.581V78.1408L122.269 78.1589ZM7.81396 209.421L7.9953 188.861H7.12506L6.92566 209.403C7.19757 209.403 7.5058 209.403 7.83215 209.403L7.81396 209.421ZM22.2819 187.683L22.4269 171.892L18.7102 171.964L18.5651 187.737L22.2999 187.683H22.2819ZM33.1236 187.465L33.2687 171.674L29.5701 171.747L29.3888 187.538L33.1055 187.465H33.1236ZM44.5456 187.23L44.7088 171.438L41.2641 171.493L41.119 187.302L44.5456 187.23ZM50.9999 187.103L51.1631 171.33L46.558 171.402L46.413 187.175L51.018 187.103H50.9999ZM53.9007 186.885H54.5897V187.03L56.8559 186.976L57.001 171.203L54.7891 171.257V171.402H54.1183V171.257L53.0123 171.311L52.8673 187.085H53.9189V186.903L53.9007 186.885ZM62.7301 186.885L62.857 171.094H60.5726V171.185L59.8837 171.148H58.8502L58.6871 186.958L62.7301 186.867V186.885ZM68.568 186.74L68.713 170.985L64.7244 171.076L64.5432 186.867L68.568 186.758V186.74ZM75.2943 186.631L75.4575 170.822L70.5623 170.931L70.381 186.74L75.2761 186.631H75.2943ZM82.0931 169.788L82.3287 144.769H83.2715L83.0358 169.77H84.7219L84.9395 144.733L77.5424 144.515L77.3248 169.915L82.1112 169.807L82.0931 169.788ZM91.2125 184.003L101.293 183.64V161.775L91.2487 161.884L91.2125 184.003ZM118.716 198.035V184.891L111.047 184.438V198.198L118.716 198.035ZM102.435 79.7543C102.435 79.7543 91.3938 81.0053 84.7582 81.7668C90.8862 82.1838 102.725 83.0359 102.725 83.0359C102.725 83.0359 116.522 82.5283 118.716 82.4557V81.9118C117.954 81.8212 102.435 79.7725 102.435 79.7725V79.7543ZM79.6636 82.3107L79.6273 81.8756H79.2104L79.0291 79.283L83.5616 78.6122H83.3803V59.4849L78.2857 59.3036L78.0863 84.5588C79.1379 84.6495 81.0234 84.7945 82.9452 84.9577V82.5464C80.9509 82.4014 79.6636 82.3107 79.6636 82.3107ZM84.3049 59.5393V78.4853L85.5922 78.2677V59.5755L84.3049 59.5393ZM21.2847 69.1845L21.1215 92.3185L23.2246 92.0284L23.4603 68.84C22.7351 68.9488 22.0099 69.0757 21.3028 69.1845H21.2847ZM13.3436 94.3672L13.1624 108.563L17.5136 108.037L17.6405 93.7689C16.1176 93.9684 14.6853 94.1859 13.3436 94.3672ZM8.04968 95.1106L7.9046 109.216L11.3312 108.781L11.4944 94.6029C10.2253 94.7842 9.06494 94.9655 8.03156 95.0924L8.04968 95.1106ZM3.0639 95.7995C3.00952 100.151 2.95514 104.883 2.93701 109.814L6.03723 109.451L6.20038 95.3644C4.71375 95.6001 3.64404 95.727 3.04578 95.8176L3.0639 95.7995ZM60.0287 145.603H60.7358L60.5545 170.205L62.8207 170.151L63.0383 145.403L59.0497 145.675L58.814 170.242L59.8837 170.205L60.0287 145.603ZM65.8303 170.133L65.9753 145.44H66.6643L66.483 170.115L68.6586 170.06L68.8943 145.023L64.8513 145.295L64.6519 170.151H65.8122L65.8303 170.133ZM75.6569 143.645L75.8019 127.618C74.8047 127.69 73.1187 127.835 70.9249 128.053L70.7617 144.026L75.6569 143.663V143.645ZM88.493 143.862L88.5474 127.582L77.6512 127.527L77.5062 143.609C79.6274 143.663 86.0998 143.826 88.4749 143.862H88.493ZM111.464 115.67C111.464 115.67 101.456 116.359 94.8567 116.83C98.392 117.139 102 117.483 102 117.483C102 117.483 110.412 116.794 115.181 116.413C113.349 116.015 111.464 115.652 111.464 115.652V115.67ZM91.3757 104.23L91.3213 116.123L110.177 114.836V103.07C106.369 103.305 95.2374 103.994 91.3575 104.23H91.3757ZM85.574 85.1209V82.7639C85.2839 82.7277 85.0302 82.6914 84.7401 82.6552V85.0846C86.4987 85.2478 87.9854 85.3566 88.6561 85.3928V82.9453C87.9128 82.8909 87.2057 82.8727 86.4987 82.7821V85.1027H85.574V85.1209ZM71.3238 86.1905L71.1788 101.529L76.0739 100.93L76.2008 85.5016C75.258 85.6648 73.5538 85.8823 71.3419 86.1724L71.3238 86.1905ZM65.4496 87.0245L65.3227 102.236L69.3113 101.746L69.4564 86.4625C68.2416 86.6438 66.9 86.8251 65.4496 87.0245ZM59.5936 87.8585L59.4485 102.961L63.4916 102.508L63.6185 87.3146C62.3494 87.4778 60.9896 87.6772 59.6118 87.8766L59.5936 87.8585ZM55.4781 88.6562H54.7891V88.5475C54.4265 88.5837 54.082 88.6562 53.7194 88.6925L53.5744 103.686L54.5897 103.559V103.432H55.2604V103.469L57.5812 103.215L57.7262 88.1305C56.9828 88.2755 56.2214 88.348 55.4599 88.4387V88.6744L55.4781 88.6562ZM47.2832 89.5627L47.1564 104.429L48.1353 104.303V104.139L48.8243 104.176V104.212L51.7614 103.867L51.9064 88.9101C50.3835 89.1095 48.8424 89.3271 47.3014 89.5446L47.2832 89.5627ZM42.0255 90.3061L41.8805 105.082L45.3071 104.647L45.434 89.8166C44.3099 89.9616 43.1496 90.1248 42.0255 90.3061ZM35.8795 91.1582L35.7344 105.807L40.0312 105.282L40.1763 90.5599C38.7621 90.7775 37.2936 90.9588 35.8795 91.1582ZM30.3135 91.9378L30.1684 106.478L31.0205 106.369V106.206H31.6913V106.279L33.8851 106.025L34.0483 91.412C32.7792 91.5752 31.5463 91.7565 30.3135 91.9197V91.9378ZM25.0376 92.6993L24.9107 107.095L25.799 107.004L26.071 106.986L28.3373 106.696L28.4642 92.1916C27.3038 92.3729 26.1617 92.5361 25.0376 92.6993ZM12.9448 132.586L14.087 132.459L14.2683 109.343C13.8876 109.379 13.5432 109.415 13.1624 109.506L12.9448 132.604V132.586ZM11.3131 109.687C10.5516 109.778 9.80835 109.868 9.13751 109.959H9.37317L9.21002 132.93L11.0955 132.749L11.3131 109.687ZM17.0784 147.47L17.2417 133.093C15.7188 133.238 14.2864 133.383 12.9267 133.51L12.7635 147.779L17.0784 147.47ZM22.6625 147.126L22.7895 132.586C21.5023 132.694 20.2694 132.803 19.0547 132.93L18.9096 147.398L22.6625 147.126ZM27.9203 146.799L28.0834 132.078C26.905 132.205 25.7628 132.277 24.6387 132.422L24.4937 147.035L27.9384 146.799H27.9203ZM33.4863 146.437L33.6132 131.57C32.3622 131.679 31.1293 131.806 29.9146 131.897L29.7695 146.691L33.4863 146.437ZM39.6142 146.02L39.7592 131.008C38.3451 131.153 36.8947 131.262 35.4624 131.407L35.3355 146.328L39.6142 146.038V146.02ZM44.9263 145.675L45.0351 130.482C43.9111 130.591 42.7689 130.7 41.6266 130.827L41.4635 145.929L44.9082 145.675H44.9263ZM51.3625 145.277L51.5257 129.884C50.0027 130.029 48.4617 130.156 46.9207 130.319L46.7575 145.585L51.3625 145.258V145.277ZM57.2186 144.86L57.3817 129.358C56.0764 129.485 54.7347 129.576 53.3568 129.721L53.2299 145.168L57.2186 144.86ZM88.6199 102.344L86.3718 102.218L85.9729 126.621H88.5474L88.6199 102.326V102.344ZM85.0483 126.639L85.4471 102.181L84.0692 102.109L83.7066 126.639H85.0483ZM82.7639 126.639L83.1265 102.073L77.8868 101.782L77.6512 126.603C78.7571 126.603 80.7333 126.603 82.7639 126.639ZM76.0376 101.873C75.3668 101.946 74.3515 102.073 73.1187 102.218L72.9736 126.929L75.8563 126.657L76.0557 101.855L76.0376 101.873ZM72.2484 127.02L72.4297 102.308C72.0308 102.326 71.5776 102.381 71.1606 102.453L70.9249 127.128L72.2484 127.001V127.02ZM69.2932 102.671C68.6042 102.725 67.8428 102.834 67.045 102.943L66.8638 127.509L69.0757 127.31L69.2932 102.671ZM66.1748 127.545L66.3561 103.052C65.9935 103.052 65.6853 103.124 65.2865 103.16L65.0688 127.654L66.1567 127.545H66.1748ZM63.4553 103.36C62.712 103.469 61.9142 103.559 61.0984 103.65L60.9171 128.053L63.2196 127.854L63.4553 103.36ZM48.6611 129.086H47.9722L48.1353 105.209C47.7909 105.282 47.4827 105.318 47.1382 105.336L46.9207 129.34L51.5257 128.941L51.7433 104.792C50.7823 104.883 49.8033 105.028 48.8425 105.118L48.6611 129.068V129.086ZM26.5062 107.856L26.3248 131.335L28.1016 131.153L28.3373 107.62C27.739 107.693 27.1044 107.784 26.5243 107.856H26.5062ZM29.9327 130.99L30.8392 130.881L31.0024 107.33C30.7305 107.348 30.4404 107.367 30.1503 107.421L29.9146 130.99H29.9327ZM31.5463 130.809L33.6132 130.609L33.8488 106.931C33.1236 107.04 32.4166 107.113 31.6732 107.203L31.5281 130.791L31.5463 130.809ZM35.4806 130.428L36.804 130.301L36.9491 106.569C36.5321 106.605 36.1332 106.678 35.6981 106.732L35.4624 130.428H35.4806ZM37.6561 106.496L37.4749 130.265L39.7955 130.047L40.0131 106.206C39.2335 106.279 38.4357 106.387 37.6561 106.478V106.496ZM41.6266 129.866L42.7507 129.757L42.8958 105.844C42.5695 105.898 42.1887 105.934 41.8442 105.989L41.6266 129.866ZM43.5847 105.771L43.4396 129.703L45.0351 129.558L45.2889 105.572C44.7087 105.662 44.1649 105.717 43.5847 105.789V105.771ZM53.3568 128.76L54.4265 128.669L54.5897 104.448C54.2271 104.502 53.9007 104.502 53.5744 104.574L53.3387 128.76H53.3568ZM55.0973 128.615L57.3455 128.397L57.5812 104.085C56.8197 104.176 56.0582 104.266 55.2604 104.375L55.0973 128.615ZM59.1766 128.234L60.1918 128.144L60.3913 103.74C60.065 103.813 59.7568 103.831 59.3942 103.904L59.1766 128.252V128.234ZM59.1766 129.141L59.0497 144.715L63.0202 144.461L63.1833 128.778C61.8961 128.887 60.5726 129.014 59.1585 129.141H59.1766ZM14.9573 109.27L14.7759 132.422L17.2235 132.169L17.4592 108.926C16.6252 109.034 15.7731 109.161 14.9754 109.252L14.9573 109.27ZM19.0909 131.987L20.0337 131.878L20.215 108.617C19.9068 108.617 19.6167 108.69 19.3085 108.744L19.0909 131.969V131.987ZM20.9039 108.527L20.7045 131.842L22.7714 131.643L23.007 108.291C22.3 108.364 21.5928 108.436 20.8858 108.545L20.9039 108.527ZM24.6387 131.461L25.6178 131.371L25.7809 107.929C25.4727 107.929 25.1826 108.001 24.8563 108.037L24.6387 131.443V131.461ZM77.8868 100.803C80.1531 100.93 86.9156 101.311 88.6017 101.384L88.638 86.2812L78.05 85.4291L77.905 100.803H77.8868ZM91.3938 83.1084L91.3575 103.269L101.238 102.671V83.7974C99.2623 83.6705 95.3462 83.3985 91.3757 83.1266L91.3938 83.1084ZM102.163 102.58L103.758 102.508V85.4835L118.661 84.8852V83.3079C117.755 83.3441 102.634 83.9062 102.634 83.9062C102.634 83.9062 102.435 83.9062 102.145 83.8518V102.562L102.163 102.58ZM101.238 118.299C99.371 118.118 94.2765 117.628 91.3032 117.374L91.2307 146.799L101.238 146.473V118.299ZM69.0394 128.198C67.8065 128.307 66.4649 128.434 65.0508 128.579L64.8876 144.334L68.8943 144.044L69.0394 128.216V128.198ZM57.1642 145.748L54.8798 145.893L54.7347 170.278L56.9285 170.205L57.1642 145.748ZM54.2089 145.947L53.1574 146.002L52.9398 170.332L54.0458 170.296L54.2089 145.947ZM51.3081 146.147L48.4254 146.31L48.226 170.405L51.0906 170.332L51.3081 146.147ZM47.5733 170.405L47.7365 146.346L46.7393 146.437L46.4855 170.441L47.5733 170.405ZM44.8901 146.564L43.2402 146.654L43.0408 170.477H44.6544L44.8901 146.546V146.564ZM42.3518 170.532L42.5331 146.727L41.4635 146.799L41.2097 170.55H42.3518V170.532ZM39.5961 146.908L37.2573 147.071L37.0579 170.55H36.3871L36.5865 147.09L35.2811 147.217L35.0635 170.677L39.3604 170.586L39.5961 146.908ZM33.4681 147.307L31.3106 147.434L31.1293 170.768L33.2143 170.695L33.4681 147.307ZM30.4404 170.768L30.6036 147.507L29.7151 147.561L29.5157 170.786H30.4404V170.768ZM27.9022 147.67L26.1073 147.797L25.9441 170.84L27.6665 170.804L27.9022 147.67ZM25.237 170.858L25.4002 147.851L24.4393 147.887L24.2217 170.876H25.2189L25.237 170.858ZM22.6444 148.032L20.5051 148.141L20.36 170.949H22.3725L22.6444 148.032ZM19.653 170.967L19.8343 148.214L18.9096 148.25L18.6558 171.003L19.6711 170.967H19.653ZM17.024 148.395L14.5584 148.558L14.4133 171.076H16.8246L17.024 148.395ZM13.7063 171.112L13.8876 148.594L12.7454 148.667L12.5278 171.112H13.7063ZM10.9142 148.812L9.01056 148.939L8.82928 171.166H10.7148L10.9324 148.812H10.9142ZM8.12219 171.203L8.2854 148.957L7.45135 149.03L7.23383 171.221H8.10406L8.12219 171.203ZM10.9324 147.887L11.0411 133.655C10.4066 133.71 9.77203 133.764 9.17377 133.818V133.927H8.4848V133.873C8.1947 133.927 7.92273 133.945 7.61456 133.982L7.48767 148.123L10.9324 147.887ZM8.4848 132.948L8.66614 109.977C8.39417 110.014 8.10406 110.032 7.86841 110.05L7.65082 133.021L8.4848 132.93V132.948ZM19.3085 107.747L23.0433 107.33L23.1884 92.9349C21.9011 93.0981 20.6683 93.2794 19.4354 93.4426L19.3085 107.765V107.747ZM25.0195 91.7202L25.9623 91.5752L26.1617 68.278C25.8535 68.3324 25.5634 68.3686 25.2551 68.423L25.0195 91.7202ZM26.8325 68.1329L26.6511 91.5027L28.446 91.2488L28.6636 67.8247C28.0653 67.9517 27.4308 68.0242 26.8325 68.1329ZM30.2772 90.995L31.1656 90.8681L31.365 67.3715C31.0749 67.4078 30.803 67.444 30.5129 67.4984L30.2772 90.995ZM32.054 67.2446L31.8908 90.7775L34.012 90.4874L34.2296 66.8095C33.4863 66.9726 32.761 67.0995 32.0358 67.2446H32.054ZM35.8613 90.2154L37.1304 90.0341L37.3116 66.3381C36.8947 66.4106 36.4777 66.4469 36.0607 66.5194L35.8431 90.2154H35.8613ZM38.0006 66.1749L37.8375 89.9435L40.14 89.6353L40.3938 65.776C39.5961 65.9392 38.8165 66.0661 38.0006 66.1749ZM42.0074 89.3452L43.0771 89.2183L43.2946 65.2865C42.932 65.3409 42.6238 65.4134 42.2612 65.4316L42.0255 89.3633L42.0074 89.3452ZM43.9473 65.1234L43.7841 89.0914L45.434 88.8557L45.6697 64.8151C45.1077 64.9421 44.5456 65.0146 43.9473 65.1052V65.1234ZM47.2832 88.6018L48.2985 88.4387L48.4798 64.3438C48.1535 64.3981 47.8271 64.4707 47.5008 64.5251L47.2832 88.6018ZM49.1506 64.1987L48.9694 88.3662L51.8521 87.931L52.0877 63.6911C51.1086 63.8724 50.1478 64.0537 49.1506 64.2169V64.1987ZM53.7013 87.6772L54.771 87.514L54.9523 63.1834C54.6078 63.256 54.2815 63.3103 53.937 63.3829L53.7013 87.6772ZM55.6412 63.0747L55.4599 87.4596L57.7443 87.1152L57.98 62.6577C57.2004 62.7846 56.457 62.9115 55.6593 63.0747H55.6412ZM59.5574 86.8614L60.5545 86.7163L60.7177 62.1682C60.4094 62.2044 60.1013 62.2588 59.7749 62.3132L59.5574 86.8432V86.8614ZM61.4428 62.0594L61.2616 86.6257L63.5822 86.3175L63.8179 61.6242C63.0201 61.7693 62.2405 61.8962 61.4428 62.0594ZM65.4315 86.0274L66.5193 85.8642L66.6825 61.0985C66.3561 61.171 66.0117 61.2435 65.649 61.2979L65.4315 86.0274ZM67.3895 60.9897L67.2083 85.7917L69.4201 85.4653L69.674 60.5727C68.9487 60.6996 68.2054 60.8265 67.3895 60.9716V60.9897ZM71.2875 85.2115L72.611 85.0483L72.7742 60.0469C72.3572 60.1013 71.9402 60.192 71.5051 60.2464L71.2875 85.2115ZM73.4813 59.9563L73.2999 84.9214L76.1826 84.5044L76.4183 59.3942C75.6931 59.5211 74.7141 59.7206 73.4813 59.9563ZM104.683 86.3537V102.417L111.5 101.982C111.5 101.982 116.994 102.653 118.643 102.834V85.7736C115.525 85.9005 105.372 86.2993 104.665 86.3356L104.683 86.3537ZM118.661 103.759L111.482 102.888C111.482 102.888 111.319 102.925 111.083 102.925V114.709L111.518 114.655C111.663 114.655 118.48 116.087 118.48 116.087L118.426 117.012L102.181 118.299V146.419L103.777 146.383V119.405H104.719V119.731L118.698 118.589V103.74L118.661 103.759ZM118.661 146.945V146.546H118.516L118.426 145.204H118.643V119.532L104.665 120.71V146.328L110.267 146.219C110.267 146.219 117.012 146.818 118.625 146.963L118.661 146.945ZM118.661 147.869L111.7 147.217V160.669C113.839 160.705 117.646 160.796 118.661 160.796V147.869ZM118.661 183.894V161.739L110.267 161.576L104.683 161.63V183.422L108.69 183.295C108.69 183.295 116.123 183.731 118.661 183.894ZM103.758 161.666H102.163V183.513L103.758 183.477V161.666ZM91.1943 160.887L110.285 160.651C110.285 160.651 110.485 160.651 110.793 160.687V147.162L110.304 147.108L91.2307 147.706V160.905L91.1943 160.887ZM88.4749 144.733L85.7735 144.66L85.5559 169.662L88.4386 169.589L88.493 144.751L88.4749 144.733ZM75.6387 144.515L72.7017 144.678L72.5385 169.807H71.8495L72.0128 144.715L70.7255 144.787L70.4898 169.915L75.3849 169.825L75.6206 144.497L75.6387 144.515ZM39.3604 171.493L35.0635 171.583L34.9004 187.357L39.2153 187.248L39.3604 171.475V171.493ZM27.6665 171.728L24.2217 171.783L24.0767 187.556L27.5214 187.502L27.6665 171.747V171.728ZM16.8246 171.946L12.5278 172.018L12.3465 187.792L16.6615 187.701L16.8246 171.946ZM10.6967 172.055L7.25195 172.127L7.07068 187.9L10.5335 187.846L10.6967 172.055ZM5.22137 188.843L3.78912 188.898L3.62592 209.185C4.02478 209.221 4.47803 209.221 5.02191 209.221L5.22137 188.825V188.843ZM5.25763 187.937L5.42078 172.164L2.2843 172.218C2.21179 177.929 2.15735 183.259 2.12109 187.991L5.27582 187.937H5.25763ZM3.29962 171.257L3.4809 149.32H4.18799L4.00665 171.239H5.42078L5.63837 149.12L2.51996 149.301C2.44745 156.916 2.35681 164.349 2.30243 171.293L3.31769 171.239L3.29962 171.257ZM5.62024 148.196L5.80151 134.09C5.25763 134.163 4.76813 134.217 4.33301 134.235V134.634H3.66217V134.326C3.20892 134.362 2.90076 134.38 2.66504 134.417C2.61066 139.058 2.5744 143.772 2.53815 148.413L5.62024 148.196ZM3.66217 133.401L3.84351 110.63H4.53247L4.36926 133.329L5.80151 133.22L6.03723 110.285C4.49615 110.467 3.42651 110.594 2.90076 110.666C2.82825 117.954 2.75568 125.696 2.66504 133.51L3.66217 133.419V133.401ZM3.0639 94.7842L4.06104 94.6392L4.22418 72.1034C3.82538 72.1941 3.53528 72.2304 3.29962 72.2666C3.28149 76.7629 3.17267 84.7945 3.0639 94.7842ZM4.89502 71.9765L4.73187 94.5304L6.21851 94.3491L6.4361 71.7046C5.89221 71.8134 5.36639 71.8859 4.91315 71.9584L4.89502 71.9765ZM8.06781 94.0771L8.90179 93.9684L9.08313 71.2513C8.79303 71.2876 8.55731 71.3239 8.32166 71.3964L8.08594 94.0771H8.06781ZM9.73578 71.1244L9.57263 93.8596L11.4944 93.5695L11.712 70.7437C11.0411 70.8706 10.3704 70.9794 9.73578 71.1063V71.1244ZM13.3256 93.3157L14.4496 93.1706L14.6309 70.2542C14.2683 70.3267 13.9057 70.363 13.5612 70.4717L13.3256 93.3157ZM15.3198 70.1454L15.1748 93.08L17.6586 92.6993L17.8762 69.674C17.0059 69.8191 16.1719 69.9822 15.338 70.1273L15.3198 70.1454ZM19.4535 92.4817L20.4326 92.3548L20.5957 69.2389C20.3237 69.2933 19.9974 69.3477 19.7073 69.3839L19.4716 92.4817H19.4535ZM23.4421 67.7885L23.4784 64.5432H25.3096V67.4621L28.718 66.8638L28.7543 63.6729L30.5854 63.7092V66.5375L34.2658 65.9029L34.3202 62.567C28.6818 63.6004 23.2609 64.5432 18.5107 65.4497H19.7436L19.7073 68.423L23.424 67.7885H23.4421ZM36.1332 65.5766L40.4482 64.797V61.4429C38.9797 61.6968 37.5111 61.9687 36.0789 62.2225H36.1876L36.1332 65.5766ZM42.3156 61.0985L42.2794 64.5069L45.7059 63.8724L45.7421 60.482C44.5818 60.6815 43.4578 60.9172 42.3337 61.1166L42.3156 61.0985ZM47.5552 63.546L52.1422 62.7483L52.1965 59.3217C50.5829 59.6118 48.9512 59.9019 47.2651 60.192H47.6096L47.5733 63.546H47.5552ZM54.0276 58.941V62.422L58.0163 61.7149V58.252C56.7472 58.4696 55.4236 58.7053 54.0276 58.941ZM59.9018 57.8894L59.8474 61.4067L63.8904 60.6996L63.9267 57.1461C62.6213 57.3637 61.2978 57.6175 59.9199 57.8894H59.9018ZM65.7578 56.8198L65.7216 60.3551L69.7283 59.6843L69.7827 56.0764C68.5317 56.3303 67.1901 56.5659 65.7578 56.8379V56.8198ZM71.6139 55.7501L71.5776 59.3399L76.4727 58.4696L76.509 54.8436C75.5299 55.043 73.862 55.315 71.6139 55.7501ZM78.3401 54.7167L78.3039 58.3064C80.4795 58.3608 87.3145 58.6509 88.7287 58.6872V55.2787L78.322 54.6985L78.3401 54.7167ZM88.7468 59.6299L86.5168 59.5393V78.0683L88.6924 77.76L88.7468 59.6299ZM86.2449 79.0473C86.2449 79.0473 80.7695 79.845 80.0262 79.9538C80.0443 80.2983 80.0806 80.8784 80.135 81.2773L102.29 78.7572L102.254 76.6541C99.9331 77.0167 86.2629 79.0292 86.2629 79.0292L86.2449 79.0473ZM103.196 78.866C106.134 79.2467 116.45 80.6246 118.752 80.9328L118.861 79.3736C116.087 78.9566 105.626 77.1255 103.16 76.7085L103.196 78.866ZM118.716 201.951V198.869L108.835 199.087H104.756V216.836L118.734 216.8V201.951H118.716ZM108.835 198.18L110.122 198.126V184.311L108.708 184.22L91.1943 184.836V198.18H108.817H108.835ZM88.4749 170.514L77.2886 170.749L77.1617 186.523L88.4386 186.305L88.4749 170.514ZM82.8182 187.32V212.231L84.3049 212.159L84.1055 187.302H82.8001L82.8182 187.32ZM81.9117 187.357L77.1254 187.447L76.9078 212.376L81.9117 212.231V187.338V187.357ZM75.0586 212.34L75.2761 187.52L72.3934 187.556L72.2122 212.177C73.3543 212.249 74.3334 212.304 75.0586 212.34ZM71.5413 212.177L71.7408 187.574H70.381L70.1453 212.104C70.6711 212.104 71.1062 212.104 71.5413 212.177ZM68.3141 212.032L68.5499 187.647L66.3198 187.701L66.1385 211.941C66.9 211.941 67.6252 212.014 68.3141 212.032ZM65.4677 211.905L65.6128 187.683H64.5068L64.3074 211.832C64.6882 211.868 65.087 211.887 65.4496 211.905H65.4677ZM62.6938 187.737L60.3732 187.792L60.1918 211.651C60.9714 211.687 61.7329 211.723 62.4581 211.76L62.6938 187.737ZM59.4848 211.633L59.6842 187.81L58.6689 187.846L58.4332 211.578C58.7958 211.615 59.1766 211.633 59.4848 211.633ZM56.584 211.506L56.8015 187.864L54.5353 187.919L54.3903 211.415C55.1155 211.451 55.8769 211.506 56.584 211.506ZM53.7194 211.415L53.8644 187.919H52.7948L52.5591 211.343C52.9579 211.361 53.3387 211.361 53.7194 211.415ZM50.728 211.27L50.9636 187.991L48.0809 188.046L47.8997 211.143C48.8424 211.198 49.7852 211.234 50.7098 211.27H50.728ZM47.2108 211.107L47.4102 188.046H46.3586L46.1229 211.071C46.4855 211.071 46.8663 211.107 47.2108 211.107ZM44.3099 210.98L44.5275 188.118H42.8958L42.7326 210.908C43.2765 210.944 43.7841 210.962 44.3099 210.98ZM42.0255 210.889L42.2068 188.154H41.1008L40.8652 210.799C41.2459 210.835 41.6448 210.835 42.0255 210.871V210.889ZM32.8879 210.491L33.1055 188.317L30.9843 188.372L30.8211 210.382C31.5101 210.454 32.2171 210.454 32.8879 210.491ZM30.1321 210.364L30.2953 188.372L29.3526 188.408L29.1531 210.346C29.4794 210.382 29.7877 210.382 30.114 210.382L30.1321 210.364ZM22.0461 210.001L22.2637 188.535L20.1968 188.589L19.9974 209.929C20.6501 209.929 21.3753 209.983 22.0461 210.001ZM19.3266 209.892L19.4898 188.589L18.5289 188.626L18.3113 209.838C18.6196 209.838 18.964 209.838 19.3085 209.892H19.3266ZM10.334 209.493L10.5335 188.789H8.66614L8.4848 209.439C9.06494 209.439 9.6814 209.475 10.334 209.493ZM2.95514 209.149L3.11829 188.916H2.12109C1.9942 200.809 1.90356 208.714 1.90356 209.131C2.03046 209.131 2.35687 209.131 2.95514 209.131V209.149ZM3.31769 71.3601L6.45422 70.7981L6.49048 67.8066H8.35785L8.32166 70.4717L11.7301 69.8553L11.7664 67.2083L13.6157 67.2446V69.5471L17.8943 68.8038L17.9305 65.5947C10.7148 66.9001 5.20325 67.9335 3.37207 68.2417C3.37207 68.3686 3.33582 69.4927 3.31769 71.3601ZM9.57263 65.2503L77.2704 52.8493C77.4155 52.8493 85.5015 53.3025 88.7287 53.4657V43.7117C78.2495 46.1049 11.4944 61.0803 9.55444 61.5336V65.2684L9.57263 65.2503ZM207.572 67.6434C207.572 67.6434 207.698 67.6434 207.88 67.6797V61.0078C205.704 60.6815 104.284 45.5066 91.5207 43.5848L91.4301 77.343L102.598 75.6751C102.743 75.6751 119.296 78.594 119.387 78.594C119.387 78.5215 121.635 77.3612 122.233 77.0892V76.9804L207.572 67.6434ZM191.617 148.83L190.076 150.226V171.402H191.617V148.83ZM178.473 150.135V155.448H183.966V150.335C182.244 150.226 180.286 150.19 178.473 150.135ZM184.891 155.448H189.133V150.516C188.879 150.516 187.139 150.444 184.891 150.353V155.448ZM189.133 156.354H184.891V171.402H189.133V156.354ZM183.966 156.354H178.473V171.402H183.966V156.354ZM177.548 156.354H171.837V171.402H177.548V156.354ZM171.837 155.448H177.548V150.117C174.52 149.99 172.091 149.918 172.091 149.918L172.127 148.993L189.423 149.628L190.928 148.232C187.538 148.159 172.617 147.706 171.819 147.652V155.466L171.837 155.448ZM191.617 172.345H171.837V178.509L191.617 177.802V172.327V172.345ZM240.26 227.225L244.394 227.533V188.245H244.865L257.738 188.444V185.344L240.242 185.09V227.207L240.26 227.225ZM257.756 189.387C257.176 189.387 256.378 189.387 255.453 189.351V228.331L257.756 228.476V189.387ZM254.51 189.351C250.812 189.278 245.844 189.206 245.318 189.206V227.605L254.51 228.276V189.351ZM257.756 183.513V181.12L262.923 180.757C263.05 180.757 270.411 181.356 270.411 181.356L271.281 181.428V183.205L314.539 183.803V182.697L285.35 178.6H210.944C220.553 180.304 236.725 183.205 236.725 183.205C236.725 183.169 253.568 183.404 257.756 183.495V183.513ZM266.368 232.936H266.223V182.86C264.536 182.697 262.923 182.588 262.887 182.588C262.887 182.588 260.838 182.77 259.605 182.842V232.736C260.802 232.809 264.917 233.099 266.349 233.226C266.331 233.171 266.331 232.972 266.331 232.972H266.368V232.936ZM268.815 232.7C268.833 231.123 269.413 184.764 269.413 183.114C268.978 183.114 268.09 183.023 267.129 182.933V232.881C267.673 232.827 268.307 232.754 268.815 232.7ZM291.895 230.651C292.457 230.688 301.268 230.905 307.958 231.068V190.112C307.577 190.112 300.307 189.985 292.294 189.877C292.257 193.249 291.931 229.817 291.895 230.651ZM523.398 223.417V201.371H515.276V223.127L523.398 223.417ZM682.417 64.4344C682.417 64.4344 694.22 61.0985 700.221 59.4124C684.665 55.4237 618.019 38.3089 611.891 36.7679C610.241 38.9072 605.346 45.2528 604.168 46.8301C606.887 47.4465 682.417 64.4344 682.417 64.4344ZM511.686 65.631V58.5059L510.018 58.7053V65.8123L511.686 65.631ZM513.517 65.4316L549.451 61.6424V54.2997L513.517 58.3427V65.4316ZM506.011 109.959L515.33 109.325V99.7881L506.247 100.586L506.193 99.6793L515.33 98.8454V77.887L506.011 78.7935V109.959ZM515.366 155.846L533.243 155.212V132.567L515.312 133.492L515.366 155.846ZM515.439 156.789V165.51L533.243 165.093V156.263L515.439 156.789ZM506.011 188.843L544.465 188.626V166.725L506.011 167.45V188.843ZM515.33 200.483L523.453 200.519V200.447H524.395V200.519L533.261 200.573V190.566L515.33 190.638V200.501V200.483ZM544.483 143.3L534.186 143.645V165.093L544.483 164.93V143.319V143.3ZM544.483 190.457L534.186 190.566V211.651L544.483 211.814V190.439V190.457ZM534.186 142.72L544.483 142.376V132.023L534.186 132.549V142.72ZM544.483 97.6669L534.186 98.5009V108.019L544.483 107.294V97.6669ZM533.261 87.3871L525.302 87.9854V108.654L533.261 108.11V87.4053V87.3871ZM524.395 88.0579L516.273 88.6744V109.288L524.395 108.744V88.0579ZM516.273 87.7679L533.279 86.4444V76.1465L516.273 77.8326V87.786V87.7679ZM534.186 97.54L544.483 96.7241V75.0405L534.186 76.0377V97.5219V97.54ZM551.318 61.4429L555.452 61.0078V53.6289L551.318 54.1003V61.4429ZM552.461 211.959L563.212 212.122V190.33L552.461 190.402V211.941V211.959ZM573.093 225.158V201.607L564.155 201.571V224.886L573.093 225.158ZM564.155 200.664L583.717 200.755V190.203L564.155 190.33V200.664ZM552.479 106.714L563.23 105.952V96.1258L552.479 96.9417V106.714ZM564.155 105.898L574.017 105.191V83.8336L564.155 84.7401V105.88V105.898ZM574.906 105.137L583.717 104.52V83.0178L574.906 83.7974V105.155V105.137ZM584.623 104.484L596.517 103.614V93.5151L584.66 94.3672L584.623 93.8414V104.466V104.484ZM564.336 164.567L583.717 164.132V153.87L564.336 154.469V164.549V164.567ZM584.623 164.132L596.517 163.896V129.358L584.623 129.975V164.132ZM596.517 190.149L584.623 190.221V212.539L596.517 212.721V190.149ZM596.517 188.299V165.745L584.623 165.945V166.054H583.717V165.981L552.461 166.561V188.571L596.517 188.317V188.299ZM552.461 164.712L563.212 164.513V143.137L552.461 143.5V164.73V164.712ZM564.318 153.544L583.699 152.946V130.011L564.227 131.008L564.318 153.562V153.544ZM596.499 127.509V105.445L552.443 108.545V129.739L596.499 127.509ZM552.443 96.0352L563.194 95.1831V73.1006L552.443 74.134V96.0533V96.0352ZM564.118 83.8155L583.681 82.0569V71.0338L564.118 72.9737V83.8155ZM584.605 93.4607L596.499 92.5542V69.7647L584.605 70.9431V93.4607ZM596.499 213.627L584.605 213.41V225.557L596.499 225.937V213.627ZM583.699 201.661L573.981 201.607V225.176L583.699 225.484V201.643V201.661ZM552.443 142.557L563.194 142.158V131.026L552.443 131.588V142.557ZM552.443 72.3029L596.499 67.9154V58.4696C589.265 59.2311 573.564 60.899 552.443 63.1472V72.3029ZM556.359 60.899L558.045 60.7177V53.3388L556.359 53.502V60.899ZM559.876 60.5183L595.193 56.7835V49.1689L559.876 53.1394V60.5183ZM597.025 56.5841L601.068 56.149C601.068 56.149 601.358 56.2215 601.793 56.2577V48.4255L597.025 48.9513V56.6022V56.5841ZM602.663 56.4572C603.279 56.5841 604.041 56.711 605.002 56.9285V48.8969C603.896 48.625 603.098 48.4618 602.717 48.3711V56.4572H602.663ZM628.535 54.1365C619.56 52.1422 611.71 50.3654 607.05 49.332V57.273C612 58.252 619.742 59.775 628.535 61.4973V54.1365ZM631.871 64.0718C617.711 61.2798 605.546 58.8503 602.01 58.1614V246.515C606.416 246.116 618.237 244.956 631.871 243.669V64.0718ZM599.381 246.642H600.632C600.777 246.642 600.886 246.606 601.104 246.588V58.0164L600.977 57.962C600.977 57.962 599.69 58.107 597.405 58.3427V67.861L597.587 69.6196L597.405 69.6559V246.533L599.381 246.624V246.642ZM596.481 227.805L552.497 226.336L552.551 224.469L563.194 224.813V213.047L552.443 212.848V243.923L596.499 246.461V227.787L596.481 227.805ZM551.518 63.2378C551.01 63.3103 550.503 63.3466 549.995 63.4191V243.814L551.518 243.886V63.2378ZM549.052 63.5098C547.856 63.6367 546.659 63.7817 545.408 63.9086V243.542L549.052 243.759V63.5098ZM544.465 212.721L534.167 212.539V223.816L544.465 224.161V212.721ZM533.243 201.444H524.377V223.49L533.243 223.762V201.444ZM514.387 190.62L505.993 190.711V211.161L514.387 211.325V190.62ZM505.993 165.582L514.387 165.419V144.261L505.993 144.515V165.582ZM514.387 143.3V133.51L506.211 133.945L506.12 132.078L544.465 130.138V109.125L506.011 111.827V143.627L514.406 143.3H514.387ZM505.993 76.9623L544.393 73.2275L544.447 73.8077V64.0356C532.862 65.2503 519.881 66.61 505.993 68.1148V76.9623ZM509.075 65.9573V58.8503L504.924 59.3217V66.4106L509.075 65.9755V65.9573ZM203.474 169.426V176.787H284.606V168.193C276.992 168.356 211.85 169.299 203.474 169.426ZM334.609 199.721V191.708L322.807 191.78V199.649L334.609 199.703V199.721ZM321.864 191.817H316.425V207.898L321.864 207.971V191.817ZM316.425 183.005V189.985L341.589 189.84V191.672L335.534 191.726V208.224L341.608 208.333V170.441L316.86 170.894V172.834H316.407V183.023L316.425 183.005ZM316.878 88.2211V95.7995L341.535 93.3519L341.626 94.0953V85.5379C333.159 86.4444 324.928 87.3146 316.878 88.2211ZM285.658 91.5027V98.936L309.1 96.5972V89.0007C300.978 89.871 293.146 90.7231 285.658 91.5027ZM258.227 94.4397V101.656L277.862 99.7156V92.3548C270.954 93.08 264.391 93.7689 258.227 94.4216V94.4397ZM234.531 167.123V154.487L230.851 154.595V167.16L234.531 167.123ZM250.304 121.363L246.461 121.707V128.252L250.304 127.98V121.381V121.363ZM245.554 120.837V112.37L235.438 113.204V129.014L239.462 128.724V112.969H240.405V128.669L245.536 128.325V121.78H245.337L245.246 120.873H245.536L245.554 120.837ZM230.851 129.34L234.531 129.086V122.741L231.503 123.085C231.503 123.085 231.177 123.14 230.851 123.158V129.34ZM230.851 153.671L234.531 153.562V147.633L230.851 147.797V153.653V153.671ZM235.438 161.376L245.554 160.995V147.09L235.438 147.597V161.376ZM246.461 153.181L250.304 153.036V146.854L246.461 147.053V153.181ZM250.304 153.961L246.461 154.124V166.96L250.304 166.906V153.979V153.961ZM245.554 161.902L235.293 162.264V167.16L245.554 166.942V161.902ZM250.304 145.005V129.812L230.851 131.189V145.984L250.304 144.986V145.005ZM230.851 122.197H231.395L234.531 121.852V105.88L230.851 106.242V122.197ZM235.438 112.28L245.554 111.464V104.792L235.438 105.789V112.28ZM246.461 111.391H246.588L246.66 112.298L246.461 112.334V120.747L250.304 120.438V104.284L246.461 104.665V111.373V111.391ZM251.229 166.888L254.909 166.815V94.8024C253.658 94.9111 252.444 95.0199 251.229 95.1649V166.888ZM255.834 94.6573V166.815L257.302 166.779V94.5304C256.831 94.5848 256.305 94.6573 255.834 94.6754V94.6573ZM272.459 161.304V145.766L262.542 146.237V161.702L272.459 161.285V161.304ZM272.459 109.977L267.854 110.467V126.766L272.459 126.439V109.995V109.977ZM258.227 127.418L261.617 127.183V120.62C260.638 120.674 258.934 120.819 258.227 120.873V127.437V127.418ZM262.542 127.128H262.651L266.948 126.82V110.539L262.542 110.993V127.11V127.128ZM273.366 126.349L277.862 126.059V119.187L273.42 119.695L273.366 119.441V126.349ZM277.862 127.89L262.796 128.941L258.354 129.268L258.245 127.89V144.624L277.88 143.645V127.89H277.862ZM277.862 145.512L273.366 145.766V152.148L277.862 151.985V145.512ZM261.617 146.31L258.227 146.473V152.619L261.617 152.529V146.31ZM258.227 119.967L261.617 119.731V103.523H262.542V110.104L272.405 109.089L272.459 109.669V102.381H273.366V118.788L277.862 118.317V101.601L258.227 103.541V119.967ZM278.787 92.2823V166.507L282.467 166.453V91.8653C281.216 92.0103 279.983 92.1553 278.787 92.2823ZM277.862 152.946L273.366 153.073V166.579L277.862 166.507V152.946ZM272.459 162.283L262.578 162.609V166.652L272.459 166.598V162.283ZM261.617 153.453L258.227 153.562V166.797L261.617 166.743V153.453ZM283.374 166.434H284.751V91.6296C284.298 91.7021 283.845 91.7202 283.374 91.7746V166.434ZM301.413 169.426L302.283 169.39V161.358L291.641 161.612V167.595C293.218 167.921 299.781 169.136 301.413 169.426ZM302.283 160.451V144.225L291.623 144.769V160.887L302.283 160.451ZM309.1 142.031V125.732L285.658 127.364V143.264L309.1 142.013V142.031ZM303.226 151.93L309.1 151.713V143.862L303.226 144.171V151.912V151.93ZM285.658 125.515L289.774 125.225V118.081L285.658 118.353V125.515ZM290.698 124.898C290.843 124.916 291.151 125.025 291.55 125.098L295.648 124.826V107.82L290.698 108.219V124.916V124.898ZM296.554 124.626C296.663 124.626 296.862 124.663 297.062 124.699L302.283 124.354V107.24L296.554 107.729V124.626ZM303.226 124.3L309.1 123.919V116.613L303.226 117.03V124.3ZM309.082 169.245V169.843V152.674L303.208 152.891V169.408L309.064 169.245H309.082ZM290.698 154.523L290.662 153.78H290.698V144.86L285.658 145.095V152.492L290.698 152.329V154.505V154.523ZM285.658 117.447L289.774 117.157V100.423L285.658 100.84V117.447ZM290.698 107.294L302.283 106.351V99.1898L290.698 100.332V107.294ZM303.226 106.369L303.28 107.167L303.226 107.203V116.087L309.1 115.688V98.4828L303.226 99.0448V106.369ZM310.025 88.9645V171.112C311.512 171.384 312.726 171.62 313.705 171.819V88.6018C312.472 88.7106 311.24 88.8557 310.025 88.9645ZM290.698 153.29L285.658 153.453V166.453C286.002 166.489 287.906 166.87 290.698 167.395V153.29ZM314.63 172.018C315.301 172.109 315.718 172.2 315.718 172.2L315.99 172.272V88.3299C315.536 88.4024 315.083 88.4568 314.63 88.4931V172.037V172.018ZM334.646 160.198V142.63L322.843 143.264V160.651L334.646 160.18V160.198ZM341.644 123.412L316.896 125.152V141.705L341.571 140.418L341.626 141.107V123.394L341.644 123.412ZM334.646 104.701L322.843 105.807V122.904L327.829 122.56V105.445H328.735V122.487L334.646 122.088V104.72V104.701ZM316.896 123.321L321.9 122.958V115.779L316.896 116.087V123.339V123.321ZM321.9 143.3L316.896 143.59V150.716L321.9 150.498V143.3ZM316.896 115.162L321.9 114.836V97.1955L316.896 97.685V115.162ZM322.843 104.883L334.646 103.759V95.9627L322.843 97.1049V104.901V104.883ZM335.57 113.676L341.626 113.15L341.662 113.241V95.2375L335.588 95.8358V113.676H335.57ZM341.644 114.093L335.57 114.6V122.016L341.644 121.581V114.093ZM341.644 142.267L335.57 142.611V150.099L341.644 149.936V142.267ZM341.644 150.843L335.57 151.042V168.737L341.644 168.628V150.843ZM334.646 161.104L322.934 161.612V169.1L334.646 168.755V161.104ZM321.9 151.441L316.896 151.622V169.063L321.9 168.973V151.441ZM314.612 173.868C314.521 173.831 314.267 173.795 313.905 173.705H313.723V173.668C311.693 173.269 306.635 172.327 301.304 171.257L300.525 171.33V171.13C294.723 170.024 288.849 168.9 286.474 168.447V176.95C290.861 177.566 310.242 180.34 314.612 180.92V173.868ZM212.122 130.7V115.308L208.242 115.634V130.972L212.122 130.682V130.7ZM208.242 161.956L218.087 161.557V148.522L208.242 148.993V161.956ZM223.145 167.323V155.683L219.03 155.828V167.413L223.145 167.323ZM219.03 154.922L223.145 154.777V148.304L219.03 148.486V154.922ZM223.145 123.792L219.03 124.137V130.229L223.055 129.92L223.145 131.153V123.792ZM218.087 114.818L213.047 115.271V130.627L218.087 130.301V114.818ZM208.242 114.745L218.087 113.893V107.566L208.242 108.491V114.764V114.745ZM219.03 123.212L223.145 122.831V107.076L219.03 107.493V123.23V123.212ZM224.052 98.1202V167.323L227.769 167.287V97.7032C226.499 97.8663 225.23 97.9932 224.052 98.102V98.1202ZM208.333 162.881V167.649L218.105 167.413V162.5L208.333 162.899V162.881ZM207.336 149.048L204.127 149.211V155.212L207.336 155.139V149.048ZM223.163 146.437V131.788L204.326 133.129L204.181 131.28L207.318 131.063V124.989L204.109 125.243V147.343L223.145 146.419L223.163 146.437ZM207.336 124.064V108.581L204.127 108.889V124.3L207.336 124.046V124.064ZM204.127 107.04L223.163 105.227V98.2108C211.198 99.4436 204.254 100.223 204.254 100.223L204.127 98.9904V107.04ZM228.657 167.287L229.944 167.25V147.108L229.872 146.074H229.944V97.5037C229.509 97.5037 229.092 97.5762 228.657 97.5944V167.287ZM230.851 104.484L250.304 102.526V95.31C243.107 96.1077 236.562 96.7785 230.851 97.395V104.484ZM256.251 92.8262L257.955 92.6811V87.2421H258.88V92.5905L260.04 92.4454V86.8795L255.979 87.3327H256.251V92.8443V92.8262ZM261.889 92.246L281.089 90.2336H280.708V84.5588L261.889 86.6619V92.2641V92.246ZM282.576 84.3957V90.0523L284.878 89.8347V84.1056L282.104 84.3957H282.576ZM285.803 83.9968V89.7259L286.456 89.6534V83.888L285.73 84.0149H285.785L285.803 83.9968ZM288.287 89.4358L312.636 86.8614V80.9328L288.287 83.6705V89.4177V89.4358ZM314.503 86.6438L316.806 86.4444V80.4796L314.503 80.7334V86.6438ZM317.73 86.3356L318.383 86.2449V80.3164L317.73 80.3889V86.3356ZM320.214 86.0455L344.78 83.4348V77.3249L320.214 80.0988V86.0455ZM346.648 83.2535L349.458 82.9634V76.8173L346.648 77.1436V83.2535ZM376.327 111.301L370.09 111.7V119.641L376.327 119.187V111.301ZM349.494 122.922V140.073L376.327 138.732V121.018L349.494 122.922ZM368.893 159.146V140.943L355.695 141.614V159.654L368.893 159.146ZM354.788 141.651L349.512 141.904V149.501L354.788 149.338V141.651ZM369.183 119.659V101.51L362.512 102.127V120.185L369.183 119.677V119.659ZM376.345 140.563L369.999 140.907V148.884L376.345 148.631V140.545V140.563ZM368.911 160.107L355.749 160.488V168.356L368.911 168.247V160.125V160.107ZM354.806 150.281L349.53 150.426V168.519L354.806 168.429V150.281ZM354.806 120.674V112.842L349.53 113.349V121.073L354.806 120.674ZM349.53 112.443L354.806 111.917V93.9684L349.53 94.4941V112.443ZM355.713 120.656L361.605 120.203V102.199L355.822 102.743L355.731 101.819L369.202 100.586V92.518L355.713 93.8777V120.656ZM370.126 110.775L376.363 110.394V91.8109L370.126 92.4454V110.775ZM370.017 149.809V168.211L376.363 168.03V149.592L370.017 149.809ZM349.53 208.569L354.806 208.641V191.672L349.53 191.708V208.569ZM355.713 199.884L361.605 199.921H362.53L370.126 199.975V191.581L355.713 191.69V199.903V199.884ZM371.051 208.931L376.363 209.004V191.581H371.051V208.931ZM376.363 209.929L371.051 209.82V218.178L376.363 218.341V209.929ZM370.126 200.863H362.53V217.888L370.126 218.141V200.863ZM361.623 200.863L355.731 200.827V217.67L361.623 217.888V200.863ZM354.824 209.566L349.548 209.493V217.471L354.824 217.634V209.566ZM349.548 189.84L376.381 189.713V169.879L349.548 170.369V189.859V189.84ZM349.548 92.663L376.381 89.9979V81.9481C367.334 82.9271 358.378 83.8518 349.548 84.7583V92.6449V92.663ZM350.419 82.8546L351.398 82.7821V76.636L350.419 76.7266V82.8546ZM353.229 82.5826L380.787 79.6456H379.554V73.4632L353.229 76.4003V82.5645V82.5826ZM381.403 79.6093L384.503 79.2648V72.9374L381.403 73.2819V79.6274V79.6093ZM384.304 218.667L390.541 218.903V210.201L384.304 210.092V218.667ZM413.711 88.0942L406.477 88.8557V98.5371V108.074L406.894 108.037L413.711 107.421V88.0942ZM405.589 200.102V191.381L391.483 191.472V200.066L405.589 200.102ZM413.366 108.382C412.097 108.491 406.985 108.962 406.985 108.962C406.985 108.962 406.568 108.998 406.278 108.998C406.114 109.433 404.048 113.875 403.522 114.981C404.791 114.872 410.665 114.401 410.719 114.401H410.683C410.683 114.057 412.623 109.941 413.366 108.382ZM402.797 115.96L402.035 116.033L405.589 108.4V98.6641L398.536 99.2986V117.701L405.589 117.193V115.779C404.048 115.888 402.797 115.978 402.797 115.978V115.96ZM384.304 120.529V138.369L413.711 136.81V118.426L384.304 120.511V120.529ZM390.541 110.285L384.304 110.757V118.68L390.541 118.226V110.304V110.285ZM413.711 189.532V169.208L384.304 169.77V189.713L413.711 189.55V189.532ZM413.711 138.659L406.477 139.058V147.924L413.711 147.688V138.659ZM384.304 167.903L390.541 167.812V149.32L384.304 149.519V167.885V167.903ZM391.483 158.874L405.589 158.312V139.076L391.483 139.838V158.874ZM391.647 159.708V167.704L405.589 167.504V159.237L391.647 159.69V159.708ZM390.559 148.449V139.892L384.322 140.255V148.667L390.559 148.467V148.449ZM406.477 148.848V167.522L413.711 167.395V148.631L406.477 148.848ZM413.711 191.381L406.477 191.436V209.548L413.711 209.729V191.381ZM390.541 191.527L384.304 191.563V209.24L390.541 209.33V191.527ZM384.304 109.887L390.541 109.415V90.5055L384.304 91.1038V109.887ZM391.483 118.19L397.593 117.773V99.3893L391.792 99.9332L391.701 99.0085L405.571 97.7394V88.9463L391.465 90.3605V118.172L391.483 118.19ZM411.155 115.126C410.955 115.289 408.635 115.507 406.477 115.724V117.139L413.711 116.649V109.85L411.155 115.144V115.126ZM413.711 210.672L406.477 210.545V219.519L413.711 219.737V210.672ZM405.589 201.117L398.536 201.081V219.247L405.589 219.465V201.117ZM397.593 201.081L391.483 201.045V218.994L397.593 219.229V201.081ZM384.304 89.2727L413.711 86.3356V78.1045C403.921 79.1561 394.058 80.1895 384.304 81.241V89.2908V89.2727ZM385.428 79.2467L386.534 79.1379V72.7743L385.428 72.883V79.2467ZM388.383 78.9385L417.881 75.8201V69.257L388.383 72.5748V78.9385ZM419.748 69.0757V75.6207L423.193 75.24V68.6587L419.44 69.0938H419.748V69.0757ZM421.688 220.081L429.103 220.335V210.962L421.688 210.817V220.081ZM444.677 200.374V191.236L430.046 191.309V200.301L444.677 200.374ZM453.779 191.218H445.584V210.291H445.765C445.765 210.291 451.911 210.4 453.779 210.454V191.218ZM429.122 191.327L421.706 191.381V209.892L429.122 210.037V191.345V191.327ZM453.779 147.289L445.584 147.615V166.888L453.779 166.725V147.289ZM436.392 114.963V95.7814L430.046 96.4159V96.3434V115.489L444.677 114.492V94.9837L437.316 95.727V114.963H436.392ZM445.584 114.419L453.779 113.839V104.991L445.584 105.699V114.419ZM453.779 115.67L421.688 117.955V136.538L453.779 134.924V115.67ZM429.122 138.025L421.706 138.405V147.416L429.122 147.18V138.043V138.025ZM430.064 137.97V158.04L444.695 157.659V137.245L430.064 137.97ZM444.695 158.729L436.809 158.693L430.082 159.037V167.341L444.695 166.888V158.711V158.729ZM429.122 148.087L421.706 148.322V167.323L429.122 167.196V148.105V148.087ZM429.122 115.598V106.95L421.706 107.675V116.087L429.122 115.579V115.598ZM421.706 106.768L429.122 106.043V86.6801L421.706 87.4234V106.768ZM430.064 95.5094L444.623 94.1134L444.695 94.4397V85.1209L430.064 86.5894V95.5094ZM445.584 104.774L453.779 104.085V84.2144L445.584 85.0121V104.774ZM445.584 137.209V146.673L453.779 146.364V136.774L445.584 137.209ZM421.706 169.154V189.532L453.797 189.333V168.538L421.706 169.136V169.154ZM453.797 211.379L445.747 211.216H445.584V220.879L453.779 221.169V211.397L453.797 211.379ZM444.695 201.299L437.625 201.244V220.607L444.695 220.861V201.299ZM436.7 201.244H430.064V220.353L436.7 220.571V201.244ZM421.706 85.556L453.797 82.3288V73.8258C443.263 74.9499 432.53 76.0921 421.706 77.2524V85.556ZM424.118 75.1493L425.423 75.0224V68.423L424.118 68.5862V75.1493ZM427.254 74.823L458.257 71.5051V64.7245L427.254 68.1692V74.8048V74.823ZM460.07 71.3057L463.569 70.9431V64.1262L460.07 64.4888V71.2876V71.3057ZM461.937 223.073L462.01 221.477L470.549 221.786V211.651L461.937 211.506V223.073ZM486.902 200.501V190.983L471.492 191.055V200.447L486.902 200.501ZM498.016 190.928L487.827 191.001V211.034L498.016 211.216V190.928ZM470.549 191.073L461.937 191.146V210.581L470.549 210.726V191.073ZM461.937 166.561L470.549 166.398V146.908L461.937 147.198V166.561ZM461.937 113.277L470.549 112.661V103.867L461.937 104.466V113.277ZM471.492 112.606L478.744 112.098V92.3367L471.492 93.0075V112.624V112.606ZM479.668 112.044L487.065 111.518L486.975 91.5752L479.668 92.2823V112.062V112.044ZM487.827 111.464L498.016 110.739V101.51L487.827 102.344V111.464ZM471.492 156.789L486.902 156.354V135.142C481.953 135.359 476.224 135.649 471.492 135.885V156.789ZM487.827 145.422L498.016 145.095V134.544C497.037 134.598 492.976 134.761 487.827 135.069V145.422ZM498.016 146.002L487.827 146.364V166.09L498.016 165.927V146.002ZM486.902 157.188L471.546 157.569V166.344L486.902 166.126V157.188ZM470.549 145.984V135.903C465.817 136.139 462.3 136.338 461.937 136.357V146.256L470.549 145.984ZM498.016 132.712V112.588L461.937 115.108V134.525L498.016 132.712ZM461.937 103.541L470.549 102.943V82.5283L461.937 83.3985V103.541ZM471.492 82.4557V92.0284L486.938 90.6324L486.902 80.8966L471.328 82.4557H471.473H471.492ZM487.827 101.42L498.016 100.586V79.8087L487.827 80.8059V101.42ZM461.937 168.411V189.315L498.016 189.079V167.776L461.937 168.429V168.411ZM498.016 212.159L487.827 211.959V222.402L498.016 222.747V212.159ZM486.902 201.462L479.668 201.426V222.112L486.902 222.366V201.462ZM478.744 201.426L471.492 201.389V221.84L478.744 222.076V201.407V201.426ZM461.937 81.5492L498.016 77.9413V69.1482C486.485 70.3811 474.411 71.6502 461.937 72.9737V81.5311V81.5492ZM464.475 70.8887L466.107 70.6893H465.799V63.9086L464.475 64.0537V70.8887ZM467.648 70.5261L503.129 66.7913V59.7206L467.648 63.6729V70.5261ZM498.941 69.0576V241.094L502.621 241.294V68.4412C501.424 68.5862 500.192 68.7131 498.941 68.84V69.0576ZM498.016 224.596L461.937 223.327V238.937L498.016 241.04V224.578V224.596ZM461.012 73.1006C460.45 73.1731 459.87 73.2275 459.326 73.2819V238.81L461.012 238.882V72.8649V73.1006ZM458.384 73.3544C457.169 73.4813 455.918 73.6264 454.685 73.7714V84.1418V135.831L454.739 136.737H454.685V238.52L458.384 238.737V73.1369V73.3544ZM453.779 223.018L421.688 221.949V236.616L453.779 238.465V223V223.018ZM420.764 77.3793C420.238 77.4337 419.748 77.4881 419.241 77.5606V236.489L420.764 236.58V77.1618V77.3793ZM418.316 77.6331C417.083 77.7782 415.868 77.887 414.617 78.032V107.475L414.889 107.439L414.617 107.983V236.217L418.316 236.453V77.3974V77.6331ZM413.711 221.659L384.304 220.662V234.495L413.711 236.235V221.677V221.659ZM383.379 211.107V81.1141C382.872 81.1866 382.382 81.241 381.911 81.2773V234.114L383.379 234.205V210.871V211.107ZM380.986 81.6218C379.771 81.7487 378.539 81.8937 377.306 82.0025V234.078L380.986 234.295V81.3861V81.6218ZM376.363 220.335L349.53 219.447V232.519L376.363 234.078V220.335ZM348.606 85.0483C348.134 85.1027 347.663 85.139 347.173 85.1934V232.355L348.606 232.446V84.8127V85.0483ZM346.267 85.3203C345.034 85.4653 343.801 85.5741 342.587 85.7192V232.084L346.267 232.319V85.0846V85.3203ZM341.68 209.475L335.606 209.385V217.072L341.68 217.308V209.475ZM334.682 200.882L328.771 200.845V216.854L334.682 217.054V200.882ZM327.847 200.845H322.861V216.619L327.847 216.8V200.827V200.845ZM321.936 209.131L316.497 209.058V216.419L321.936 216.582V209.131ZM314.648 231.213V185.906L271.353 185.326L271.299 188.916L308.538 189.478H308.973V231.34C310.623 231.395 312.092 231.431 313.216 231.449C313.796 231.34 314.322 231.286 314.648 231.195V231.213ZM291.151 223.726L277.862 228.222V189.967H278.787V226.935C279.802 226.59 289.502 223.29 291.17 222.747L291.478 190.112C285.785 190.04 279.874 189.967 275.831 189.913V230.724C276.865 230.397 289.248 226.336 291.115 225.72L291.151 223.726ZM274.907 189.877C273.221 189.877 271.952 189.84 271.281 189.822L270.828 229.908L274.925 230.307V189.877H274.907ZM207.372 167.704V156.209L204.163 156.282V167.794L207.372 167.704ZM204.163 98.5371L229.781 95.8176V90.4511H230.706V95.7089L254.474 93.1706V87.6228L233.606 89.9616V95.3281H231.775V90.161L227.805 90.5962V95.9627H225.937V90.8318L204.163 93.2794V98.519V98.5371ZM200.882 91.7928C201.57 91.7202 588.685 48.2805 602.119 46.7576L609.534 37.1305C580.961 40.684 230.561 84.5044 196.639 88.7106C198.434 90.016 200.555 91.5933 200.863 91.8109L200.882 91.7928ZM205.904 84.7764L604.766 34.6829V26.5969C587.814 28.9719 222.058 78.7935 205.831 80.9872V84.5407L205.904 84.7764ZM252.208 73.0825V62.0594L245.391 63.3285L245.464 73.9346L252.226 73.0643L252.208 73.0825ZM244.122 62.6577C244.122 62.6577 249.38 61.6605 252.135 61.1347C250.866 60.6996 249.434 60.2282 249.434 60.2282C249.434 60.2282 243.342 61.2254 239.462 61.8599L244.122 62.6758V62.6577ZM236.525 56.4572C236.562 57.1098 236.634 60.5546 236.689 61.3704C237.631 61.2072 249.488 59.2855 249.488 59.2855C249.543 59.2855 249.742 59.358 250.032 59.4305V54.4085C249.887 54.4085 249.797 54.3541 249.797 54.3541C249.797 54.3541 247.766 54.6985 245.282 55.0974V55.46L243.451 55.4963V55.3875C240.514 55.8589 237.468 56.3484 236.525 56.4572ZM249.815 53.4838C249.815 53.4838 251.102 53.7376 252.19 53.9189V23.134C250.304 26.5062 246.243 33.722 245.155 35.6619L245.282 53.9371L249.815 53.2481V53.4838ZM264.482 42.0981V24.0587C261.327 23.3878 256.088 22.2456 254.039 21.7743V54.064C255.199 52.7042 263.177 44.6363 265.66 42.0981H264.482ZM242.798 35.4625C241.91 35.0818 241.094 34.7192 241.094 34.6829C241.094 34.7192 240.605 34.8279 239.952 34.9367L242.798 35.4625ZM244.956 5.13082C244.956 5.6022 244.956 8.52115 244.956 11.6758V20.6139C246.986 16.9879 249.126 13.1806 249.126 13.1806C249.253 13.0355 251.628 12.0203 253.278 11.2588H252.172V2.24813C250.032 3.04586 245.717 4.62318 244.938 4.89513L244.956 5.13082ZM264.482 4.94952C263.34 4.6957 255.798 2.79204 254.039 2.37504V10.9325C254.257 10.8055 254.492 10.733 254.637 10.6605V10.3342L255.199 10.4792L264.464 13.1987V4.71383L264.482 4.94952ZM271.498 16.2264C270.846 16.027 256.577 11.8752 255.526 11.5489C255.526 12.401 255.381 16.2446 255.363 17.6225L255.598 18.0938V18.1301C257.502 18.5652 270.32 21.5386 271.245 21.738C271.299 20.8678 271.48 16.7885 271.498 16.2264ZM254.384 18.7103C252.933 19.4536 250.667 20.5595 250.667 20.5595C250.667 20.7227 242.889 34.1934 242.889 34.1934L242.109 33.722L250.087 19.925C250.232 19.78 253.06 18.3658 254.438 17.6769L254.601 11.6395C253.151 12.3103 249.76 13.8151 249.76 13.8151C249.76 13.9239 247.041 18.8009 244.811 22.7714C244.756 22.989 244.666 23.134 244.557 23.1884C243.125 25.7266 241.983 27.7572 241.983 27.7572C241.729 27.9566 238.61 28.6274 237.74 28.8087V34.3566C238.556 34.2478 241.203 33.8489 241.203 33.8489C241.348 33.8489 242.363 34.3022 243.288 34.701V34.5741H244.829C246.134 32.2353 250.649 24.1856 252.19 21.4842V21.3754H252.244C252.534 20.904 252.697 20.5595 252.697 20.5595L265.008 23.2428H266.295V23.5329L266.476 23.5691C267.256 23.3153 268.815 22.7895 270.012 22.4269C267.365 21.7924 254.402 18.7828 254.402 18.7828V18.7284L254.384 18.7103ZM266.295 39.5962V41.4817L266.404 41.3367C266.639 41.2641 267.854 41.5361 269.069 41.8262L266.295 39.5962ZM271.009 43.2041C270.429 43.0771 266.676 42.0981 266.639 42.0981C266.639 42.4063 254.13 55.0249 254.13 55.0249C254.057 55.0793 253.785 55.0611 253.459 54.9886H252.19V54.8073C251.755 54.7348 251.301 54.6441 250.939 54.6079V59.7568H250.884C251.61 60.0107 252.462 60.3008 253.078 60.5183H254.021C255.326 59.2492 261.708 53.0487 264.5 50.3836V49.9666H264.953C265.479 49.4227 265.806 49.1145 265.806 49.1145C266.15 49.0238 269.776 49.604 271.045 49.8215V43.2222L271.009 43.2041ZM268.561 50.3292C267.256 50.0935 266.041 49.8941 266.005 49.8941V49.9666H266.295V50.6918L268.561 50.3292ZM264.464 51.5258C261.237 54.7529 254.166 61.6061 254.166 61.6061L254.021 61.7512V72.8105L264.464 71.3601V51.5076V51.5258ZM690.558 50.166C689.325 49.8034 616.804 29.7878 606.815 27.032V34.6466L611.782 34.0302L612.054 34.1209L690.54 54.0277V49.9485L690.558 50.166ZM544.483 243.687V226.246L506.138 224.886L506.193 223.037L514.406 223.327V212.412L506.011 212.267V241.475L544.465 243.669L544.483 243.687ZM505.105 68.3868C504.561 68.4593 504.035 68.5137 503.509 68.5681V241.33L505.105 241.421V68.1692V68.3868ZM341.644 232.011V219.084L316.461 218.214V230.561L341.644 232.011ZM182.606 229.382C197.401 231.032 256.088 237.541 256.088 237.541C256.088 237.523 293.019 234.966 308.593 232.229L291.043 231.775L291.097 226.626L274.889 231.975V231.177L270.773 230.814L270.719 234.604C270.719 234.604 268.289 234.839 267.365 234.93C267.365 235.075 267.328 235.365 267.328 235.365L257.828 234.676V228.893L257.774 229.69L240.333 228.385V228.512C240.333 228.512 239.97 228.512 239.372 228.584L239.336 229.165L235.166 228.929C223.163 229.926 193.557 228.439 182.606 229.382ZM171.039 223.726L235.166 227.08C237.069 226.916 238.266 226.826 238.483 226.826V185.308L236.634 185.272C236.471 185.272 203.946 179.434 203.946 179.434C203.946 179.434 199.05 179.651 192.632 179.851V179.959H188.734C177.512 180.376 163.751 180.848 161.122 180.939V186.232C162.899 186.232 232.337 186.758 232.337 186.758V220.335L161.086 216.6L161.195 214.769C161.195 214.769 162.609 214.842 164.966 214.987V188.1C163.37 188.1 162.065 188.1 161.086 188.1C160.995 200.193 160.832 221.913 160.832 223.127C162.301 223.218 171.058 223.762 171.058 223.762L171.039 223.726ZM166.108 215.005V188.082H165.872V215.005H166.108ZM173.469 188.336V215.386C174.756 215.476 176.116 215.531 177.512 215.603V188.191C175.717 188.154 173.958 188.154 172.327 188.154V215.349C172.327 215.349 172.49 215.349 172.544 215.349V188.336H173.469ZM230.506 218.395V188.571C230.144 188.571 226.989 188.517 222.257 188.499V217.942C226.971 218.214 230.107 218.359 230.506 218.395ZM221.314 188.499C221.06 188.481 220.807 188.481 220.535 188.481V217.87C220.788 217.888 221.079 217.906 221.314 217.906V188.517V188.499ZM219.61 188.481C217.579 188.481 215.404 188.481 212.992 188.444V217.453C215.349 217.598 217.579 217.725 219.61 217.815V188.481ZM212.086 188.444H211.016V217.38C211.397 217.398 211.741 217.434 212.086 217.434V188.444ZM210.092 188.426C208.061 188.426 205.958 188.39 203.837 188.372V216.999C205.958 217.09 208.079 217.217 210.092 217.326V188.426ZM202.894 188.372H202.133V216.927C202.386 216.927 202.658 216.927 202.894 216.927V188.354V188.372ZM201.208 188.372C199.232 188.372 197.237 188.372 195.279 188.336V216.564C197.237 216.673 199.25 216.764 201.208 216.854V188.354V188.372ZM194.337 188.336H193.811V216.51H194.337V188.336ZM192.904 188.299C191.019 188.299 189.151 188.299 187.284 188.245V216.165C189.151 216.238 191.001 216.328 192.904 216.437V188.299ZM186.359 188.245H185.852V216.075C186.015 216.075 186.214 216.075 186.359 216.075V188.245ZM184.927 188.227C183.205 188.227 181.537 188.227 179.923 188.191V215.748C181.537 215.803 183.205 215.911 184.927 215.984V188.209V188.227ZM178.998 188.191H178.491V215.64C178.654 215.64 178.799 215.676 178.998 215.694V188.191ZM171.438 188.154C169.861 188.118 168.392 188.118 167.051 188.1V215.059C168.338 215.132 169.807 215.204 171.438 215.313V188.154ZM103.885 217.072V199.322H91.2669L91.1943 218.631C94.6572 218.123 102 217.072 102 217.072H103.867H103.885ZM9.66327 213.464C12.002 213.627 79.573 218.232 88.4386 218.83L88.5292 187.483L85.157 187.538L85.3203 212.412L88.3842 212.34L88.4205 214.171L76.7628 214.497V213.953H76.7266V214.497L64.3981 213.953H62.5488V213.881L9.6814 211.56V213.5L9.66327 213.464Z" fill="#F6F9FE"/>
</svg>
