<svg width="20" height="20" viewBox="0 0 20 20" fill="none" xmlns="http://www.w3.org/2000/svg">
<g clip-path="url(#clip0_812_7)">
<path fill-rule="evenodd" clip-rule="evenodd" d="M3.33325 4.16675C3.33325 3.50371 3.59664 2.86782 4.06549 2.39898C4.53433 1.93014 5.17021 1.66675 5.83325 1.66675H14.1666C14.8296 1.66675 15.4655 1.93014 15.9344 2.39898C16.4032 2.86782 16.6666 3.50371 16.6666 4.16675V17.5234C16.6666 18.5401 15.5166 19.1318 14.6899 18.5409L9.99992 15.1909L5.30992 18.5409C4.48242 19.1326 3.33325 18.5409 3.33325 17.5242V4.16675ZM5.83325 3.33341C5.61224 3.33341 5.40028 3.42121 5.244 3.57749C5.08772 3.73377 4.99992 3.94573 4.99992 4.16675V16.7142L9.27325 13.6617C9.48528 13.5103 9.73934 13.4288 9.99992 13.4288C10.2605 13.4288 10.5146 13.5103 10.7266 13.6617L14.9999 16.7142V4.16675C14.9999 3.94573 14.9121 3.73377 14.7558 3.57749C14.5996 3.42121 14.3876 3.33341 14.1666 3.33341H5.83325Z" fill="#3172EA"/>
<path d="M4.16675 17.9167V4.16667L4.58341 2.91667L5.83341 2.5H13.3334L15.4167 2.91667L15.8334 4.58333V17.9167L9.58341 14.1667L4.16675 17.9167Z" fill="#3172EA"/>
</g>
<defs>
<clipPath id="clip0_812_7">
<rect width="20" height="20" fill="white"/>
</clipPath>
</defs>
</svg>
