<svg width="20" height="20" viewBox="0 0 20 20" fill="none" xmlns="http://www.w3.org/2000/svg">
<path fill-rule="evenodd" clip-rule="evenodd" d="M3.33337 4.16675C3.33337 3.50371 3.59677 2.86782 4.06561 2.39898C4.53445 1.93014 5.17033 1.66675 5.83337 1.66675H14.1667C14.8297 1.66675 15.4656 1.93014 15.9345 2.39898C16.4033 2.86782 16.6667 3.50371 16.6667 4.16675V17.5234C16.6667 18.5401 15.5167 19.1318 14.69 18.5409L10 15.1909L5.31004 18.5409C4.48254 19.1326 3.33337 18.5409 3.33337 17.5242V4.16675ZM5.83337 3.33341C5.61236 3.33341 5.4004 3.42121 5.24412 3.57749C5.08784 3.73377 5.00004 3.94573 5.00004 4.16675V16.7142L9.27337 13.6617C9.4854 13.5103 9.73946 13.4288 10 13.4288C10.2606 13.4288 10.5147 13.5103 10.7267 13.6617L15 16.7142V4.16675C15 3.94573 14.9122 3.73377 14.756 3.57749C14.5997 3.42121 14.3877 3.33341 14.1667 3.33341H5.83337Z" fill="#101010"/>
</svg>
