<svg width="30" height="30" viewBox="0 0 30 30" fill="none" xmlns="http://www.w3.org/2000/svg">
<g id="Icon/Search">
<path id="Vector" d="M26.25 26.25L20.5548 20.5548M20.5548 20.5548C21.4689 19.6407 22.194 18.5555 22.6887 17.3612C23.1834 16.1668 23.4381 14.8868 23.4381 13.594C23.4381 12.3013 23.1834 11.0212 22.6887 9.82688C22.194 8.63255 21.4689 7.54735 20.5548 6.63325C19.6407 5.71915 18.5555 4.99404 17.3612 4.49933C16.1668 4.00462 14.8868 3.75 13.594 3.75C12.3013 3.75 11.0212 4.00462 9.82688 4.49933C8.63255 4.99404 7.54735 5.71915 6.63325 6.63325C4.78714 8.47936 3.75 10.9832 3.75 13.594C3.75 16.2048 4.78714 18.7087 6.63325 20.5548C8.47936 22.4009 10.9832 23.4381 13.594 23.4381C16.2048 23.4381 18.7087 22.4009 20.5548 20.5548Z" stroke="#999999" stroke-width="2.5" stroke-linecap="round" stroke-linejoin="round"/>
</g>
</svg>
