<svg width="42" height="42" viewBox="0 0 42 42" fill="none" xmlns="http://www.w3.org/2000/svg">
<g clip-path="url(#clip0_1188_1558)">
<path fill-rule="evenodd" clip-rule="evenodd" d="M7 8.75C7 7.35761 7.55312 6.02226 8.53769 5.03769C9.52226 4.05312 10.8576 3.5 12.25 3.5H29.75C31.1424 3.5 32.4777 4.05312 33.4623 5.03769C34.4469 6.02226 35 7.35761 35 8.75V36.799C35 38.934 32.585 40.1765 30.849 38.9358L21 31.9008L11.151 38.9358C9.41325 40.1783 7 38.9358 7 36.8008V8.75ZM12.25 7C11.7859 7 11.3408 7.18438 11.0126 7.51256C10.6844 7.84075 10.5 8.28587 10.5 8.75V35.0998L19.474 28.6895C19.9193 28.3714 20.4528 28.2004 21 28.2004C21.5472 28.2004 22.0807 28.3714 22.526 28.6895L31.5 35.0998V8.75C31.5 8.28587 31.3156 7.84075 30.9874 7.51256C30.6593 7.18438 30.2141 7 29.75 7H12.25Z" fill="#3172EA"/>
<path d="M8.75 37.625V8.75L9.625 6.125L12.25 5.25H28L32.375 6.125L33.25 9.625V37.625L20.125 29.75L8.75 37.625Z" fill="#3172EA"/>
</g>
<defs>
<clipPath id="clip0_1188_1558">
<rect width="42" height="42" fill="white"/>
</clipPath>
</defs>
</svg>
