<svg width="52" height="52" viewBox="0 0 52 52" fill="none" xmlns="http://www.w3.org/2000/svg">
<g id="iconoir:profile-circle">
<path id="Vector" d="M25.6667 5C13.7002 5 4 14.7002 4 26.6667C4 38.6332 13.7002 48.3333 25.6667 48.3333C37.6332 48.3333 47.3333 38.6332 47.3333 26.6667C47.3333 14.7002 37.6332 5 25.6667 5Z" fill="#5D90EE" stroke="#303030" stroke-width="2.5" stroke-linecap="round" stroke-linejoin="round"/>
<path id="Vector 237" d="M26 32.5C16.3913 32.5 11.913 37.8333 10.5 40C12.5833 42.4583 17.5 47.5 26 47.5C34.01 47.5 37.25 43.875 41.5 40C40.087 37.8333 35.6087 32.5 26 32.5Z" fill="white" stroke="white" stroke-width="3.25"/>
<circle id="Ellipse 1" cx="26" cy="20" r="7" fill="white" stroke="white"/>
<path id="Vector_2" d="M25.6667 5C13.7002 5 4 14.7002 4 26.6667C4 38.6332 13.7002 48.3333 25.6667 48.3333C37.6332 48.3333 47.3333 38.6332 47.3333 26.6667C47.3333 14.7002 37.6332 5 25.6667 5Z" stroke="#303030" stroke-width="2.5" stroke-linecap="round" stroke-linejoin="round"/>
</g>
</svg>
